<svg width="100" height="100" viewBox="0 0 100 100" xmlns="http://www.w3.org/2000/svg">
  <defs>
    <radialGradient id="nodeGradient" cx="50%" cy="50%" r="50%" fx="50%" fy="50%">
      <stop offset="0%" style="stop-color:#FFFFFF; stop-opacity:1" />
      <stop offset="100%" style="stop-color:#ECF0F1; stop-opacity:1" />
    </radialGradient>
    <radialGradient id="lightGradient" cx="50%" cy="50%" r="50%" fx="50%" fy="50%">
      <stop offset="0%" style="stop-color:rgba(255, 255, 255, 0.8); stop-opacity:0" />
      <stop offset="100%" style="stop-color:rgba(255, 255, 255, 0); stop-opacity:1" />
    </radialGradient>
    <filter id="blur1" x="-50%" y="-50%" width="200%" height="200%">
      <feGaussianBlur in="SourceGraphic" stdDeviation="1" />
    </filter>
    <filter id="shadow1" x="-50%" y="-50%" width="200%" height="200%">
      <feDropShadow dx="1" dy="1" stdDeviation="1" flood-color="#000000" flood-opacity="0.3"/>
    </filter>
    <linearGradient id="circleGradient" x1="0%" y1="0%" x2="100%" y2="100%">
      <stop offset="0%" style="stop-color:#4B6A94; stop-opacity:1" />
      <stop offset="100%" style="stop-color:#1C273D; stop-opacity:1" />
    </linearGradient>
  </defs>
  <circle cx="50" cy="50" r="50" fill="url(#circleGradient)" />

  <!-- Neural Network Nodes -->
  <circle cx="30" cy="20" r="5" fill="url(#nodeGradient)" filter="url(#shadow1)"/>
  <circle cx="70" cy="20" r="5" fill="url(#nodeGradient)" filter="url(#shadow1)"/>
  <circle cx="50" cy="40" r="5" fill="url(#nodeGradient)" filter="url(#shadow1)"/>
  <circle cx="30" cy="60" r="5" fill="url(#nodeGradient)" filter="url(#shadow1)"/>
  <circle cx="70" cy="60" r="5" fill="url(#nodeGradient)" filter="url(#shadow1)"/>
  <circle cx="50" cy="80" r="5" fill="url(#nodeGradient)" filter="url(#shadow1)"/>
  
  <!-- Connections -->
  <line x1="30" y1="20" x2="50" y2="40" stroke="#ECF0F1" stroke-width="2" filter="url(#blur1)"/>
  <line x1="70" y1="20" x2="50" y2="40" stroke="#ECF0F1" stroke-width="2" filter="url(#blur1)"/>
  <line x1="50" y1="40" x2="30" y2="60" stroke="#ECF0F1" stroke-width="2" filter="url(#blur1)"/>
  <line x1="50" y1="40" x2="70" y2="60" stroke="#ECF0F1" stroke-width="2" filter="url(#blur1)"/>
  <line x1="30" y1="60" x2="50" y2="80" stroke="#ECF0F1" stroke-width="2" filter="url(#blur1)"/>
  <line x1="70" y1="60" x2="50" y2="80" stroke="#ECF0F1" stroke-width="2" filter="url(#blur1)"/>
  
  <!-- Additional Details -->
  <circle cx="30" cy="20" r="7" fill="none" stroke="#ECF0F1" stroke-width="1" />
  <circle cx="70" cy="20" r="7" fill="none" stroke="#ECF0F1" stroke-width="1" />
  <circle cx="50" cy="40" r="7" fill="none" stroke="#ECF0F1" stroke-width="1" />
  <circle cx="30" cy="60" r="7" fill="none" stroke="#ECF0F1" stroke-width="1" />
  <circle cx="70" cy="60" r="7" fill="none" stroke="#ECF0F1" stroke-width="1" />
  <circle cx="50" cy="80" r="7" fill="none" stroke="#ECF0F1" stroke-width="1" />
  
  <!-- Light Effect -->
  <circle cx="50" cy="50" r="50" fill="url(#lightGradient)" />
</svg>
